<?xml version="1.0" encoding="UTF-8"?>
<svg id="Layer_1" xmlns="http://www.w3.org/2000/svg" viewBox="0 0 1920 1080">
  <defs>
    <style>
      .cls-1 {
        fill: #ffe300;
      }

      .cls-2 {
        stroke: #000;
        stroke-linecap: square;
        stroke-miterlimit: 10;
        stroke-width: 2px;
      }
    </style>
  </defs>
  <g>
    <g>
      <path class="cls-1" d="M1055.55,417.98c-9.68,35.92-40.35,60.86-75.15,60.86-15.84,0-30.88-4.98-43.81-14.44,2.28.15,4.52.24,6.8.24,34.37,0,64.93-18.72,76.45-46.66h35.71Z"/>
      <path class="cls-1" d="M1055.55,370.68h-35.71c-12.26-29.76-46.12-49-83.28-46.39,12.95-9.5,28-14.47,43.84-14.47,34.8,0,65.47,24.94,75.15,60.86Z"/>
    </g>
    <path class="cls-2" d="M980.53,482.64c-18,0-35.02-6.19-49.23-17.91-39.34-5.14-68.95-34.95-68.95-69.5s29.6-64.34,68.93-69.5c14.23-11.73,31.25-17.93,49.25-17.93,36.73,0,68.99,26.68,78.43,64.89.11.43,0,.89-.27,1.24s-.7.56-1.14.56h-38.56c-.6,0-1.13-.36-1.35-.92-11.94-30.31-47.4-49.56-85.16-45.06-19.21,16.14-30.22,40.43-30.22,66.72s11.01,50.58,30.23,66.72c3.65.44,7.35.66,11.02.66,33.56,0,63.35-18.38,74.13-45.73.22-.56.75-.92,1.35-.92h38.56c.45,0,.87.2,1.14.56s.37.81.27,1.24c-9.45,38.19-41.7,64.87-78.43,64.87ZM936.73,465.27c12.93,9.47,27.97,14.46,43.8,14.46,34.82,0,65.47-24.93,75.15-60.86h-35.7c-11.51,27.94-42.09,46.65-76.46,46.65-2.26,0-4.52-.08-6.79-.24ZM927.2,329.31c-35.65,6.54-61.95,34.15-61.95,65.92s26.31,59.4,61.97,65.92c-17.76-16.63-27.86-40.38-27.86-65.92s10.09-49.3,27.84-65.92ZM1019.97,371.58h35.7c-9.68-35.94-40.33-60.88-75.15-60.88-15.83,0-30.88,4.99-43.82,14.48,37.16-2.6,71,16.63,83.26,46.4Z"/>
  </g>
  <g>
    <path d="M809.49,729.74v-23.02h-8.5v-6.08h24.72v6.08h-8.5v23.02h-7.73Z"/>
    <path d="M846.31,729.74v-29.1h22.77v6.08h-14.83v5.27h12.83v6.03h-12.83v5.65h15v6.07h-22.94Z"/>
    <path d="M891.08,729.74v-29.1h7.69v23.03h13.85v6.07h-21.54Z"/>
    <path d="M933.73,720.56v-6.54h15.17v6.54h-15.17Z"/>
    <path d="M990.64,729.74l-1.49-4.93h-9.94l-1.49,4.93h-8.33l10.54-29.18h8.5l10.54,29.18h-8.33ZM980.87,719.41h6.63l-3.31-10.88-3.31,10.88Z"/>
    <path d="M1026.15,729.74l-9.18-29.1h8.07l4.93,16.91c.25,1.02.64,3.48.76,4.76.04-1.28.38-3.7.68-4.76l4.93-16.91h8.07l-9.22,29.1h-9.05Z"/>
    <path d="M1064.93,729.74v-29.1h7.9v29.1h-7.9Z"/>
    <path d="M1102.52,729.74l-9.18-29.1h8.07l4.93,16.91c.25,1.02.64,3.48.76,4.76.04-1.28.38-3.7.68-4.76l4.93-16.91h8.07l-9.22,29.1h-9.05Z"/>
  </g>
  <g>
    <path d="M624,553c-22.55,0-38.91,15.98-38.91,38s16.36,38,38.91,38c17.71,0,31.73-9.54,36.82-24.97h-7.17c-4.77,11.68-16.09,18.91-29.65,18.91-18.64,0-32.17-13.43-32.17-31.94s13.53-31.94,32.17-31.94c13.57,0,24.88,7.23,29.65,18.91h7.17c-5.09-15.43-19.11-24.97-36.82-24.97Z"/>
    <path d="M676.96,628.99h6.94v-75.99h-6.94v75.99Z"/>
    <path d="M723.22,629h7.02v-69.69h26.31v-6.31h-59.64v6.31h26.31v69.69Z"/>
    <path d="M791.53,628.99h58.81v-6.31h-50.69l49.5-63.35v-6.33h-55.84v6.31h47.72l-49.5,63.35v6.33Z"/>
    <path d="M865.6,628.99h55.37v-6.31h-48.35v-29.13h41.48v-6.31h-41.48v-27.94h48.35v-6.31h-55.37v75.99Z"/>
    <path d="M1081.65,553c-22.55,0-38.91,15.98-38.91,38s16.36,38,38.91,38c17.71,0,31.73-9.54,36.82-24.97h-7.17c-4.77,11.68-16.09,18.91-29.65,18.91-18.64,0-32.17-13.43-32.17-31.94s13.53-31.94,32.17-31.94c13.57,0,24.88,7.23,29.65,18.91h7.17c-5.09-15.43-19.11-24.97-36.82-24.97Z"/>
    <path d="M1190.28,628.99h6.88v-44.21c0-20.2-11.71-31.78-32.13-31.78s-32.01,11.58-32.01,31.78v44.21h6.65v-25.55h50.62v25.55ZM1190.28,597.25h-50.62v-12.47c0-16.27,9.2-25.6,25.25-25.6s25.37,9.33,25.37,25.6v12.47Z"/>
    <path d="M1213.56,628.99h7.02v-35.55h40.53v-6.31h-40.53v-27.82h47.4v-6.31h-54.42v75.99Z"/>
    <path d="M1280.89,628.99h55.37v-6.31h-48.35v-29.13h41.48v-6.31h-41.48v-27.94h48.35v-6.31h-55.37v75.99Z"/>
    <path d="M935.51,582.56c0-19.27,11.15-29.56,31.28-29.56s31.17,10.29,31.17,29.56v46.36h-6.22v-46.36c0-14.71-9.93-23.82-24.95-23.82s-25.06,9.11-25.06,23.82v46.36h-6.22v-46.36Z"/>
    <path d="M770.11,629h6.94v-76h-6.94v76Z"/>
    <rect x="1295.28" y="525.87" width="27" height="6" transform="translate(-92.39 357.62) rotate(-15.04)"/>
  </g>
</svg>